<svg width="14" height="14" viewBox="0 0 14 14" fill="none" xmlns="http://www.w3.org/2000/svg">
<path d="M0.777772 0.777781C1.20733 0.348225 1.90377 0.348225 2.33333 0.77778L13.2222 11.6667C13.6517 12.0962 13.6517 12.7927 13.2222 13.2222V13.2222C12.7926 13.6518 12.0962 13.6518 11.6666 13.2222L0.777772 2.33333C0.34822 1.90378 0.34822 1.20733 0.777772 0.777781V0.777781Z" fill="#EDC29A"/>
<path d="M0.777828 13.2222C0.348276 12.7927 0.348276 12.0962 0.777828 11.6667L11.6667 0.777782C12.0962 0.348226 12.7927 0.348226 13.2222 0.777782V0.777782C13.6518 1.20733 13.6518 1.90378 13.2222 2.33333L2.33338 13.2222C1.90383 13.6518 1.20738 13.6518 0.777828 13.2222V13.2222Z" fill="#EDC29A"/>
</svg>
